<svg width="168" height="268" viewBox="0 0 168 268" fill="none" xmlns="http://www.w3.org/2000/svg">
<path d="M104.5 235.5L114 225.5L120.5 263.5L93 241.5L104.5 235.5Z" fill="#38251B"/>
<path d="M68.5 238.5L61 234L59 229L52 265L81.5 242.5L68.5 238.5Z" fill="#38251B"/>
<path d="M56 211C56 223.15 64.0081 246.5 56 246.5C56 291.5 31 251.65 31 239.5C31 227.35 41.4919 187 49.5 187C57.5081 187 56 198.85 56 211Z" fill="#38251B"/>
<path d="M135.5 211C135.5 223.15 147.508 246.5 139.5 246.5C124.5 290 112 251.65 112 239.5C112 227.35 113.492 187 121.5 187C129.508 187 135.5 198.85 135.5 211Z" fill="#38251B"/>
<circle cx="84.5" cy="206.5" r="35.5" fill="#F3D1B1" fill-opacity="0.76"/>
<ellipse cx="69.5" cy="205.5" rx="4.5" ry="3.5" fill="#FBF6F3"/>
<ellipse cx="101.5" cy="205.5" rx="4.5" ry="3.5" fill="#FBF6F3"/>
<ellipse cx="103" cy="205.5" rx="4" ry="3.5" fill="#3C2E26"/>
<ellipse cx="71" cy="205.5" rx="4" ry="3.5" fill="#3C2E26"/>
<path d="M80.7855 215.385C82.2342 213.936 85.0716 210.203 87.5922 211.603C88.1658 211.922 88.405 212.405 88.8888 212.792C89.2258 213.061 89.8253 213.449 90.0773 213.764C90.6086 214.428 91.9064 214.721 92.2381 215.385" stroke="#9A7F67" stroke-width="0.5"/>
<path d="M76.1672 223.596C79.6656 226.141 83.4908 227.054 87.8359 227.054C88.9164 227.054 89.9968 227.054 91.0773 227.054C92.1817 227.054 93.4188 226.344 94.4386 225.973C95.4134 225.619 96.1658 224.955 97.0317 224.461C97.918 223.954 98.3757 222.996 99.0725 222.3" stroke="#3C2E26" stroke-width="0.5"/>
<path d="M83.6931 228.982L86.6824 229.447" stroke="#3C2E26" stroke-width="0.5"/>
<path d="M98.9921 222.084C99.3294 222.515 99.837 222.909 100.073 223.38" stroke="#3C2E26" stroke-width="0.5"/>
<path d="M76.3833 222.732C76.2695 223.315 75.9511 225.055 75.9511 224.461" stroke="#3C2E26" stroke-width="0.5"/>
<path d="M84.5 0L122.172 173.25H46.8279L84.5 0Z" fill="#9CA4FF"/>
<path d="M132 177L132.898 180.109H135.804L133.453 182.031L134.351 185.141L132 183.219L129.649 185.141L130.547 182.031L128.196 180.109H131.102L132 177Z" fill="#FDE8C0"/>
<path d="M81 177L81.8981 180.109H84.8042L82.4531 182.031L83.3511 185.141L81 183.219L78.6489 185.141L79.5469 182.031L77.1958 180.109H80.1019L81 177Z" fill="#FDE8C0"/>
<path d="M37 177L37.8981 180.109H40.8042L38.4531 182.031L39.3511 185.141L37 183.219L34.6489 185.141L35.5469 182.031L33.1958 180.109H36.1019L37 177Z" fill="#FDE8C0"/>
<path d="M81 158L81.8981 161.109H84.8042L82.4531 163.031L83.3511 166.141L81 164.219L78.6489 166.141L79.5469 163.031L77.1958 161.109H80.1019L81 158Z" fill="#FDE8C0"/>
<path d="M102 143L102.898 146.109H105.804L103.453 148.031L104.351 151.141L102 149.219L99.6489 151.141L100.547 148.031L98.1958 146.109H101.102L102 143Z" fill="#FDE8C0"/>
<path d="M67 131L67.8981 134.109H70.8042L68.4531 136.031L69.3511 139.141L67 137.219L64.6489 139.141L65.5469 136.031L63.1958 134.109H66.1019L67 131Z" fill="#FDE8C0"/>
<path d="M97 106L97.8981 109.109H100.804L98.4531 111.031L99.3511 114.141L97 112.219L94.6489 114.141L95.5469 111.031L93.1958 109.109H96.1019L97 106Z" fill="#FDE8C0"/>
<path d="M72 90L72.8981 93.1094H75.8042L73.4531 95.0312L74.3511 98.1406L72 96.2188L69.6489 98.1406L70.5469 95.0312L68.1958 93.1094H71.1019L72 90Z" fill="#FDE8C0"/>
<path d="M90 66L90.8981 69.1094H93.8042L91.4531 71.0312L92.3511 74.1406L90 72.2188L87.6489 74.1406L88.5469 71.0312L86.1958 69.1094H89.1019L90 66Z" fill="#FDE8C0"/>
<path d="M84 35L84.8981 38.1094H87.8042L85.4531 40.0312L86.3511 43.1406L84 41.2188L81.6489 43.1406L82.5469 40.0312L80.1958 38.1094H83.1019L84 35Z" fill="#FDE8C0"/>
<path d="M85.9999 192.073L64.5 191.5L51.5 190.5L55 204.5L120.5 191L85.9999 192.073Z" fill="#38251B"/>
<path d="M52.5 190L62.5 243.5L35.5 235L44 212L52.5 190Z" fill="#38251B"/>
<path d="M118.5 190L135.5 229.5L110.5 239.5L118.5 190Z" fill="#38251B"/>
<ellipse cx="84" cy="181.5" rx="84" ry="10.5" fill="#9CA4FF"/>
<path d="M71 177L71.8981 180.109H74.8042L72.4531 182.031L73.3511 185.141L71 183.219L68.6489 185.141L69.5469 182.031L67.1958 180.109H70.1019L71 177Z" fill="#FDE8C0"/>
<path d="M125 177L125.898 180.109H128.804L126.453 182.031L127.351 185.141L125 183.219L122.649 185.141L123.547 182.031L121.196 180.109H124.102L125 177Z" fill="#FDE8C0"/>
<path d="M37 177L37.8981 180.109H40.8042L38.4531 182.031L39.3511 185.141L37 183.219L34.6489 185.141L35.5469 182.031L33.1958 180.109H36.1019L37 177Z" fill="#FDE8C0"/>
</svg>
