<svg width="168" height="268" viewBox="0 0 168 268" fill="none" xmlns="http://www.w3.org/2000/svg">
<path d="M47.4483 172.75L84.5 2.35318L121.552 172.75H47.4483Z" fill="#9CA4FF" stroke="#FDE8C0"/>
<path d="M132 177L132.898 180.109H135.804L133.453 182.031L134.351 185.141L132 183.219L129.649 185.141L130.547 182.031L128.196 180.109H131.102L132 177Z" fill="#FDE8C0"/>
<path d="M81 177L81.8981 180.109H84.8042L82.4531 182.031L83.3511 185.141L81 183.219L78.6489 185.141L79.5469 182.031L77.1958 180.109H80.1019L81 177Z" fill="#FDE8C0"/>
<path d="M37 177L37.8981 180.109H40.8042L38.4531 182.031L39.3511 185.141L37 183.219L34.6489 185.141L35.5469 182.031L33.1958 180.109H36.1019L37 177Z" fill="#FDE8C0"/>
<path d="M81 158L81.8981 161.109H84.8042L82.4531 163.031L83.3511 166.141L81 164.219L78.6489 166.141L79.5469 163.031L77.1958 161.109H80.1019L81 158Z" fill="#FDE8C0"/>
<path d="M102 143L102.898 146.109H105.804L103.453 148.031L104.351 151.141L102 149.219L99.6489 151.141L100.547 148.031L98.1958 146.109H101.102L102 143Z" fill="#FDE8C0"/>
<path d="M67 131L67.8981 134.109H70.8042L68.4531 136.031L69.3511 139.141L67 137.219L64.6489 139.141L65.5469 136.031L63.1958 134.109H66.1019L67 131Z" fill="#FDE8C0"/>
<path d="M97 106L97.8981 109.109H100.804L98.4531 111.031L99.3511 114.141L97 112.219L94.6489 114.141L95.5469 111.031L93.1958 109.109H96.1019L97 106Z" fill="#FDE8C0"/>
<path d="M72 90L72.8981 93.1094H75.8042L73.4531 95.0312L74.3511 98.1406L72 96.2188L69.6489 98.1406L70.5469 95.0312L68.1958 93.1094H71.1019L72 90Z" fill="#FDE8C0"/>
<path d="M90 66L90.8981 69.1094H93.8042L91.4531 71.0312L92.3511 74.1406L90 72.2188L87.6489 74.1406L88.5469 71.0312L86.1958 69.1094H89.1019L90 66Z" fill="#FDE8C0"/>
<path d="M84 35L84.8981 38.1094H87.8042L85.4531 40.0312L86.3511 43.1406L84 41.2188L81.6489 43.1406L82.5469 40.0312L80.1958 38.1094H83.1019L84 35Z" fill="#FDE8C0"/>
<path d="M167.5 181.5C167.5 181.94 167.131 182.519 166.033 183.189C164.969 183.839 163.367 184.484 161.257 185.108C157.045 186.352 150.926 187.48 143.335 188.428C128.16 190.325 107.182 191.5 84 191.5C60.8181 191.5 39.8397 190.325 24.665 188.428C17.0742 187.48 10.9548 186.352 6.74284 185.108C4.63314 184.484 3.0313 183.839 1.96723 183.189C0.868924 182.519 0.5 181.94 0.5 181.5C0.5 181.06 0.868924 180.481 1.96723 179.811C3.0313 179.161 4.63314 178.516 6.74284 177.892C10.9548 176.648 17.0742 175.52 24.665 174.572C39.8397 172.675 60.8181 171.5 84 171.5C107.182 171.5 128.16 172.675 143.335 174.572C150.926 175.52 157.045 176.648 161.257 177.892C163.367 178.516 164.969 179.161 166.033 179.811C167.131 180.481 167.5 181.06 167.5 181.5Z" fill="#9CA4FF" stroke="#FDE8C0"/>
<path d="M71 177L71.8981 180.109H74.8042L72.4531 182.031L73.3511 185.141L71 183.219L68.6489 185.141L69.5469 182.031L67.1958 180.109H70.1019L71 177Z" fill="#FDE8C0"/>
<path d="M125 177L125.898 180.109H128.804L126.453 182.031L127.351 185.141L125 183.219L122.649 185.141L123.547 182.031L121.196 180.109H124.102L125 177Z" fill="#FDE8C0"/>
<path d="M37 177L37.8981 180.109H40.8042L38.4531 182.031L39.3511 185.141L37 183.219L34.6489 185.141L35.5469 182.031L33.1958 180.109H36.1019L37 177Z" fill="#FDE8C0"/>
</svg>
